<?xml version="1.0" standalone="no"?>
<!DOCTYPE svg PUBLIC "-//W3C//DTD SVG 20010904//EN"
 "http://www.w3.org/TR/2001/REC-SVG-20010904/DTD/svg10.dtd">
<svg version="1.0" xmlns="http://www.w3.org/2000/svg"
 width="460.000000pt" height="460.000000pt" viewBox="0 0 460.000000 460.000000"
 preserveAspectRatio="xMidYMid meet">
<metadata>
Created by potrace 1.14, written by Peter Selinger 2001-2017
</metadata>
<g transform="translate(0.000000,460.000000) scale(0.100000,-0.100000)"
fill="#000000" stroke="none">
<path d="M0 2300 l0 -2300 2300 0 2300 0 0 2300 0 2300 -2300 0 -2300 0 0
-2300z m2406 1938 c-3 -18 -10 -68 -16 -110 -5 -42 -12 -90 -16 -105 -4 -18
-68 -90 -181 -204 l-176 -177 87 -168 c81 -156 86 -169 70 -181 -29 -21 -38
-16 -64 39 -14 29 -57 114 -97 188 l-72 135 189 185 188 185 7 60 c3 33 11 88
17 123 10 60 11 62 40 62 29 0 30 -2 24 -32z m300 -345 c7 -10 14 -21 14 -24
0 -4 -81 -71 -180 -150 -99 -78 -180 -146 -180 -149 0 -4 41 -46 90 -94 50
-48 90 -89 90 -91 0 -2 -20 -39 -45 -81 -25 -41 -45 -78 -45 -80 0 -3 -7 -16
-16 -29 -13 -21 -19 -22 -40 -13 -13 6 -24 14 -24 17 0 3 22 45 49 93 l49 88
-99 91 c-54 51 -99 97 -99 104 0 7 12 21 28 30 15 10 81 61 146 114 137 111
239 190 245 191 2 0 10 -8 17 -17z m-62 -938 l56 -84 108 -3 107 -3 3 -137 3
-138 94 0 95 0 0 -155 0 -155 -400 0 -400 0 0 -35 0 -35 510 0 510 0 0 -275
c0 -151 -3 -275 -7 -275 -15 0 -1998 0 -2020 0 l-23 0 0 275 0 275 185 0 185
0 0 190 0 190 355 0 355 0 0 40 0 40 -180 0 -180 0 0 100 0 100 185 0 184 0
102 85 c55 47 104 85 109 85 4 0 33 -38 64 -85z m-1518 28 c-3 -16 -8 -63 -12
-106 -3 -42 -11 -80 -17 -84 -5 -3 -34 -7 -64 -8 -50 -1 -58 -5 -98 -46 l-43
-44 -10 -102 -9 -102 -72 -84 c-39 -47 -71 -89 -71 -94 0 -6 8 -21 19 -34 10
-13 32 -50 50 -82 l32 -58 -11 -82 c-6 -45 -13 -96 -16 -113 -4 -24 1 -38 21
-62 26 -30 30 -32 99 -32 l72 0 -15 -115 -14 -115 -87 0 -87 0 -101 114 c-82
93 -100 119 -97 139 3 13 11 80 19 148 l15 124 -41 82 c-22 46 -38 90 -34 98
3 8 30 47 60 87 l54 73 17 150 17 150 67 61 c36 34 93 84 126 113 l60 51 88 0
89 0 -6 -27z m2847 -88 l97 -114 -15 -98 c-25 -172 -23 -197 23 -288 l40 -81
-63 -84 -63 -85 -17 -150 c-11 -103 -21 -154 -31 -161 -8 -6 -51 -45 -97 -86
-149 -137 -133 -128 -232 -128 l-87 0 6 28 c2 15 8 59 11 97 10 107 8 105 73
105 51 0 62 4 104 38 32 25 47 45 48 61 0 14 5 64 11 113 l12 88 68 79 c38 43
69 82 69 86 0 4 -23 45 -50 92 l-50 86 15 114 c14 113 14 115 -7 143 -26 36
-29 37 -105 36 -36 -1 -63 3 -63 9 0 6 5 56 12 113 l12 102 90 -1 91 0 98
-114z"/>
</g>
</svg>
